<svg width="174.66mm" height="106.96mm" version="1.0" xmlns="http://www.w3.org/2000/svg"><text transform="translate(50.683 387.63)" x="-21.673279" y="11.033020" fill="#000000" font-family="Arial" font-size="12.188px" font-stretch="Normal" font-weight="700" letter-spacing="0px" word-spacing="0px" style="line-height:125.000000%" xml:space="preserve"><tspan x="-21.673279" y="11.033020"><tspan dx="0.000000" dy="0.000000" fill="#000000" font-family="Arial" font-size="12.188px" font-stretch="Normal" font-weight="700">1Hz</tspan></tspan></text><g fill="none" stroke-linecap="round" stroke-linejoin="round"><path d="m40.359 380.13v7.5087" stroke="#000" stroke-width="1.8772px"/><path d="m40.359 380.13v-173.64" stroke="#808080" stroke-dasharray="1,1" stroke-width=".93858px"/><path d="m74.148 380.13v3.7543" stroke="#000" stroke-width="1.8772px"/><path d="m74.148 380.13v-173.64" stroke="#808080" stroke-dasharray="1,1" stroke-width=".93858px"/><path d="m94.797 380.13v3.7543" stroke="#000" stroke-width="1.8772px"/><path d="m94.797 380.13v-173.64" stroke="#808080" stroke-dasharray="1,1" stroke-width=".93858px"/><path d="m108.88 380.13v3.7543" stroke="#000" stroke-width="1.8772px"/><path d="m108.88 380.13v-173.64" stroke="#808080" stroke-dasharray="1,1" stroke-width=".93858px"/><path d="m119.2 380.13v3.7543" stroke="#000" stroke-width="1.8772px"/><path d="m119.2 380.13v-173.64" stroke="#808080" stroke-dasharray="1,1" stroke-width=".93858px"/><path d="m128.59 380.13v3.7543" stroke="#000" stroke-width="1.8772px"/><path d="m128.59 380.13v-173.64" stroke="#808080" stroke-dasharray="1,1" stroke-width=".93858px"/><path d="m136.09 380.13v3.7543" stroke="#000" stroke-width="1.8772px"/><path d="m136.09 380.13v-173.64" stroke="#808080" stroke-dasharray="1,1" stroke-width=".93858px"/><path d="m142.66 380.13v3.7543" stroke="#000" stroke-width="1.8772px"/><path d="m142.66 380.13v-173.64" stroke="#808080" stroke-dasharray="1,1" stroke-width=".93858px"/><path d="m148.3 380.13v3.7543" stroke="#000" stroke-width="1.8772px"/><path d="m148.3 380.13v-173.64" stroke="#808080" stroke-dasharray="1,1" stroke-width=".93858px"/></g><text transform="translate(168.01 387.63)" x="-28.451385" y="11.033020" fill="#000000" font-family="Arial" font-size="12.188px" font-stretch="Normal" font-weight="700" letter-spacing="0px" word-spacing="0px" style="line-height:125.000000%" xml:space="preserve"><tspan x="-28.451385" y="11.033020"><tspan dx="0.000000" dy="0.000000" fill="#000000" font-family="Arial" font-size="12.188px" font-stretch="Normal" font-weight="700">10Hz</tspan></tspan></text><g fill="none" stroke-linecap="round" stroke-linejoin="round"><path d="m153.93 380.13v7.5087" stroke="#000" stroke-width="1.8772px"/><path d="m153.93 380.13v-173.64" stroke="#808080" stroke-dasharray="1,1" stroke-width=".93858px"/><path d="m187.72 380.13v3.7543" stroke="#000" stroke-width="1.8772px"/><path d="m187.72 380.13v-173.64" stroke="#808080" stroke-dasharray="1,1" stroke-width=".93858px"/><path d="m207.43 380.13v3.7543" stroke="#000" stroke-width="1.8772px"/><path d="m207.43 380.13v-173.64" stroke="#808080" stroke-dasharray="1,1" stroke-width=".93858px"/><path d="m221.51 380.13v3.7543" stroke="#000" stroke-width="1.8772px"/><path d="m221.51 380.13v-173.64" stroke="#808080" stroke-dasharray="1,1" stroke-width=".93858px"/><path d="m232.77 380.13v3.7543" stroke="#000" stroke-width="1.8772px"/><path d="m232.77 380.13v-173.64" stroke="#808080" stroke-dasharray="1,1" stroke-width=".93858px"/><path d="m241.22 380.13v3.7543" stroke="#000" stroke-width="1.8772px"/><path d="m241.22 380.13v-173.64" stroke="#808080" stroke-dasharray="1,1" stroke-width=".93858px"/><path d="m249.66 380.13v3.7543" stroke="#000" stroke-width="1.8772px"/><path d="m249.66 380.13v-173.64" stroke="#808080" stroke-dasharray="1,1" stroke-width=".93858px"/><path d="m256.23 380.13v3.7543" stroke="#000" stroke-width="1.8772px"/><path d="m256.23 380.13v-173.64" stroke="#808080" stroke-dasharray="1,1" stroke-width=".93858px"/><path d="m261.86 380.13v3.7543" stroke="#000" stroke-width="1.8772px"/><path d="m261.86 380.13v-173.64" stroke="#808080" stroke-dasharray="1,1" stroke-width=".93858px"/></g><text transform="translate(283.45 387.63)" x="-35.229492" y="11.033020" fill="#000000" font-family="Arial" font-size="12.188px" font-stretch="Normal" font-weight="700" letter-spacing="0px" word-spacing="0px" style="line-height:125.000000%" xml:space="preserve"><tspan x="-35.229492" y="11.033020"><tspan dx="0.000000" dy="0.000000" fill="#000000" font-family="Arial" font-size="12.188px" font-stretch="Normal" font-weight="700">100Hz</tspan></tspan></text><g fill="none" stroke-linecap="round" stroke-linejoin="round"><path d="m266.56 380.13v7.5087" stroke="#000" stroke-width="1.8772px"/><path d="m266.56 380.13v-173.64" stroke="#808080" stroke-dasharray="1,1" stroke-width=".93858px"/><path d="m301.29 380.13v3.7543" stroke="#000" stroke-width="1.8772px"/><path d="m301.29 380.13v-173.64" stroke="#808080" stroke-dasharray="1,1" stroke-width=".93858px"/><path d="m321 380.13v3.7543" stroke="#000" stroke-width="1.8772px"/><path d="m321 380.13v-173.64" stroke="#808080" stroke-dasharray="1,1" stroke-width=".93858px"/><path d="m335.07 380.13v3.7543" stroke="#000" stroke-width="1.8772px"/><path d="m335.07 380.13v-173.64" stroke="#808080" stroke-dasharray="1,1" stroke-width=".93858px"/><path d="m345.4 380.13v3.7543" stroke="#000" stroke-width="1.8772px"/><path d="m345.4 380.13v-173.64" stroke="#808080" stroke-dasharray="1,1" stroke-width=".93858px"/><path d="m354.78 380.13v3.7543" stroke="#000" stroke-width="1.8772px"/><path d="m354.78 380.13v-173.64" stroke="#808080" stroke-dasharray="1,1" stroke-width=".93858px"/><path d="m362.29 380.13v3.7543" stroke="#000" stroke-width="1.8772px"/><path d="m362.29 380.13v-173.64" stroke="#808080" stroke-dasharray="1,1" stroke-width=".93858px"/><path d="m368.86 380.13v3.7543" stroke="#000" stroke-width="1.8772px"/><path d="m368.86 380.13v-173.64" stroke="#808080" stroke-dasharray="1,1" stroke-width=".93858px"/><path d="m374.49 380.13v3.7543" stroke="#000" stroke-width="1.8772px"/><path d="m374.49 380.13v-173.64" stroke="#808080" stroke-dasharray="1,1" stroke-width=".93858px"/></g><text transform="translate(395.14 387.63)" x="-30.474701" y="11.033020" fill="#000000" font-family="Arial" font-size="12.188px" font-stretch="Normal" font-weight="700" letter-spacing="0px" word-spacing="0px" style="line-height:125.000000%" xml:space="preserve"><tspan x="-30.474701" y="11.033020"><tspan dx="0.000000" dy="0.000000" fill="#000000" font-family="Arial" font-size="12.188px" font-stretch="Normal" font-weight="700">1KHz</tspan></tspan></text><g fill="none" stroke-linecap="round" stroke-linejoin="round"><path d="m380.13 380.13v7.5087" stroke="#000" stroke-width="1.8772px"/><path d="m380.13 380.13v-173.64" stroke="#808080" stroke-dasharray="1,1" stroke-width=".93858px"/><path d="m413.91 380.13v3.7543" stroke="#000" stroke-width="1.8772px"/><path d="m413.91 380.13v-173.64" stroke="#808080" stroke-dasharray="1,1" stroke-width=".93858px"/><path d="m433.63 380.13v3.7543" stroke="#000" stroke-width="1.8772px"/><path d="m433.63 380.13v-173.64" stroke="#808080" stroke-dasharray="1,1" stroke-width=".93858px"/><path d="m447.7 380.13v3.7543" stroke="#000" stroke-width="1.8772px"/><path d="m447.7 380.13v-173.64" stroke="#808080" stroke-dasharray="1,1" stroke-width=".93858px"/><path d="m458.97 380.13v3.7543" stroke="#000" stroke-width="1.8772px"/><path d="m458.97 380.13v-173.64" stroke="#808080" stroke-dasharray="1,1" stroke-width=".93858px"/><path d="m468.35 380.13v3.7543" stroke="#000" stroke-width="1.8772px"/><path d="m468.35 380.13v-173.64" stroke="#808080" stroke-dasharray="1,1" stroke-width=".93858px"/><path d="m475.86 380.13v3.7543" stroke="#000" stroke-width="1.8772px"/><path d="m475.86 380.13v-173.64" stroke="#808080" stroke-dasharray="1,1" stroke-width=".93858px"/><path d="m482.43 380.13v3.7543" stroke="#000" stroke-width="1.8772px"/><path d="m482.43 380.13v-173.64" stroke="#808080" stroke-dasharray="1,1" stroke-width=".93858px"/><path d="m488.06 380.13v3.7543" stroke="#000" stroke-width="1.8772px"/><path d="m488.06 380.13v-173.64" stroke="#808080" stroke-dasharray="1,1" stroke-width=".93858px"/></g><text transform="translate(510.59 387.63)" x="-37.252808" y="11.033020" fill="#000000" font-family="Arial" font-size="12.188px" font-stretch="Normal" font-weight="700" letter-spacing="0px" word-spacing="0px" style="line-height:125.000000%" xml:space="preserve"><tspan x="-37.252808" y="11.033020"><tspan dx="0.000000" dy="0.000000" fill="#000000" font-family="Arial" font-size="12.188px" font-stretch="Normal" font-weight="700">10KHz</tspan></tspan></text><g fill="none" stroke-linecap="round" stroke-linejoin="round"><path d="m492.76 380.13v7.5087" stroke="#000" stroke-width="1.8772px"/><path d="m492.76 380.13v-173.64" stroke="#808080" stroke-dasharray="1,1" stroke-width=".93858px"/><path d="m527.48 380.13v3.7543" stroke="#000" stroke-width="1.8772px"/><path d="m527.48 380.13v-173.64" stroke="#808080" stroke-dasharray="1,1" stroke-width=".93858px"/><path d="m547.19 380.13v3.7543" stroke="#000" stroke-width="1.8772px"/><path d="m547.19 380.13v-173.64" stroke="#808080" stroke-dasharray="1,1" stroke-width=".93858px"/><path d="m561.27 380.13v3.7543" stroke="#000" stroke-width="1.8772px"/><path d="m561.27 380.13v-173.64" stroke="#808080" stroke-dasharray="1,1" stroke-width=".93858px"/><path d="m572.54 380.13v3.7543" stroke="#000" stroke-width="1.8772px"/><path d="m572.54 380.13v-173.64" stroke="#808080" stroke-dasharray="1,1" stroke-width=".93858px"/><path d="m580.98 380.13v3.7543" stroke="#000" stroke-width="1.8772px"/><path d="m580.98 380.13v-173.64" stroke="#808080" stroke-dasharray="1,1" stroke-width=".93858px"/><path d="m588.49 380.13v3.7543" stroke="#000" stroke-width="1.8772px"/><path d="m588.49 380.13v-173.64" stroke="#808080" stroke-dasharray="1,1" stroke-width=".93858px"/><path d="m595.06 380.13v3.7543" stroke="#000" stroke-width="1.8772px"/><path d="m595.06 380.13v-173.64" stroke="#808080" stroke-dasharray="1,1" stroke-width=".93858px"/><path d="m600.69 380.13v3.7543" stroke="#000" stroke-width="1.8772px"/><path d="m600.69 380.13v-173.64" stroke="#808080" stroke-dasharray="1,1" stroke-width=".93858px"/></g><text transform="translate(627.91 387.63)" x="-44.030914" y="11.033020" fill="#000000" font-family="Arial" font-size="12.188px" font-stretch="Normal" font-weight="700" letter-spacing="0px" word-spacing="0px" style="line-height:125.000000%" xml:space="preserve"><tspan x="-44.030914" y="11.033020"><tspan dx="0.000000" dy="0.000000" fill="#000000" font-family="Arial" font-size="12.188px" font-stretch="Normal" font-weight="700">100KHz</tspan></tspan></text><path d="m606.32 380.13v7.5087" fill="none" stroke="#000" stroke-linecap="round" stroke-linejoin="round" stroke-width="1.8772px"/><path d="m606.32 380.13v-173.64" fill="none" stroke="#808080" stroke-dasharray="1,1" stroke-linecap="round" stroke-linejoin="round" stroke-width=".93858px"/><text transform="translate(647.62 372.62)" x="-32.652740" y="11.033020" fill="#000000" font-family="Arial" font-size="12.188px" font-stretch="Normal" font-weight="700" letter-spacing="0px" word-spacing="0px" style="line-height:125.000000%" xml:space="preserve"><tspan x="-32.652740" y="11.033020"><tspan dx="0.000000" dy="0.000000" fill="#000000" font-family="Arial" font-size="12.188px" font-stretch="Normal" font-weight="700">-180° </tspan></tspan></text><path d="m606.32 380.13h7.5087" fill="none" stroke="#000" stroke-linecap="round" stroke-linejoin="round" stroke-width="1.8772px"/><text transform="translate(647.62 352.91)" x="-32.652740" y="11.033020" fill="#000000" font-family="Arial" font-size="12.188px" font-stretch="Normal" font-weight="700" letter-spacing="0px" word-spacing="0px" style="line-height:125.000000%" xml:space="preserve"><tspan x="-32.652740" y="11.033020"><tspan dx="0.000000" dy="0.000000" fill="#000000" font-family="Arial" font-size="12.188px" font-stretch="Normal" font-weight="700">-160° </tspan></tspan></text><path d="m606.32 360.42h7.5087" fill="none" stroke="#000" stroke-linecap="round" stroke-linejoin="round" stroke-width="1.8772px"/><path d="m40.359 360.42h565.97" fill="none" stroke="#808080" stroke-dasharray="1,1" stroke-linecap="round" stroke-linejoin="round" stroke-width=".93858px"/><text transform="translate(647.62 334.14)" x="-32.652740" y="11.033020" fill="#000000" font-family="Arial" font-size="12.188px" font-stretch="Normal" font-weight="700" letter-spacing="0px" word-spacing="0px" style="line-height:125.000000%" xml:space="preserve"><tspan x="-32.652740" y="11.033020"><tspan dx="0.000000" dy="0.000000" fill="#000000" font-family="Arial" font-size="12.188px" font-stretch="Normal" font-weight="700">-140° </tspan></tspan></text><path d="m606.32 341.64h7.5087" fill="none" stroke="#000" stroke-linecap="round" stroke-linejoin="round" stroke-width="1.8772px"/><path d="m40.359 341.64h565.97" fill="none" stroke="#808080" stroke-dasharray="1,1" stroke-linecap="round" stroke-linejoin="round" stroke-width=".93858px"/><text transform="translate(647.62 314.43)" x="-32.652740" y="11.033020" fill="#000000" font-family="Arial" font-size="12.188px" font-stretch="Normal" font-weight="700" letter-spacing="0px" word-spacing="0px" style="line-height:125.000000%" xml:space="preserve"><tspan x="-32.652740" y="11.033020"><tspan dx="0.000000" dy="0.000000" fill="#000000" font-family="Arial" font-size="12.188px" font-stretch="Normal" font-weight="700">-120° </tspan></tspan></text><path d="m606.32 321.93h7.5087" fill="none" stroke="#000" stroke-linecap="round" stroke-linejoin="round" stroke-width="1.8772px"/><path d="m40.359 321.93h565.97" fill="none" stroke="#808080" stroke-dasharray="1,1" stroke-linecap="round" stroke-linejoin="round" stroke-width=".93858px"/><text transform="translate(647.62 295.65)" x="-32.652740" y="11.033020" fill="#000000" font-family="Arial" font-size="12.188px" font-stretch="Normal" font-weight="700" letter-spacing="0px" word-spacing="0px" style="line-height:125.000000%" xml:space="preserve"><tspan x="-32.652740" y="11.033020"><tspan dx="0.000000" dy="0.000000" fill="#000000" font-family="Arial" font-size="12.188px" font-stretch="Normal" font-weight="700">-100° </tspan></tspan></text><path d="m606.32 303.16h7.5087" fill="none" stroke="#000" stroke-linecap="round" stroke-linejoin="round" stroke-width="1.8772px"/><path d="m40.359 303.16h565.97" fill="none" stroke="#808080" stroke-dasharray="1,1" stroke-linecap="round" stroke-linejoin="round" stroke-width=".93858px"/><text transform="translate(647.62 275.94)" x="-25.874634" y="11.033020" fill="#000000" font-family="Arial" font-size="12.188px" font-stretch="Normal" font-weight="700" letter-spacing="0px" word-spacing="0px" style="line-height:125.000000%" xml:space="preserve"><tspan x="-25.874634" y="11.033020"><tspan dx="0.000000" dy="0.000000" fill="#000000" font-family="Arial" font-size="12.188px" font-stretch="Normal" font-weight="700">-80° </tspan></tspan></text><path d="m606.32 283.45h7.5087" fill="none" stroke="#000" stroke-linecap="round" stroke-linejoin="round" stroke-width="1.8772px"/><path d="m40.359 283.45h565.97" fill="none" stroke="#808080" stroke-dasharray="1,1" stroke-linecap="round" stroke-linejoin="round" stroke-width=".93858px"/><text transform="translate(647.62 257.17)" x="-25.874634" y="11.033020" fill="#000000" font-family="Arial" font-size="12.188px" font-stretch="Normal" font-weight="700" letter-spacing="0px" word-spacing="0px" style="line-height:125.000000%" xml:space="preserve"><tspan x="-25.874634" y="11.033020"><tspan dx="0.000000" dy="0.000000" fill="#000000" font-family="Arial" font-size="12.188px" font-stretch="Normal" font-weight="700">-60° </tspan></tspan></text><path d="m606.32 264.68h7.5087" fill="none" stroke="#000" stroke-linecap="round" stroke-linejoin="round" stroke-width="1.8772px"/><path d="m40.359 264.68h565.97" fill="none" stroke="#808080" stroke-dasharray="1,1" stroke-linecap="round" stroke-linejoin="round" stroke-width=".93858px"/><text transform="translate(647.62 237.46)" x="-25.874634" y="11.033020" fill="#000000" font-family="Arial" font-size="12.188px" font-stretch="Normal" font-weight="700" letter-spacing="0px" word-spacing="0px" style="line-height:125.000000%" xml:space="preserve"><tspan x="-25.874634" y="11.033020"><tspan dx="0.000000" dy="0.000000" fill="#000000" font-family="Arial" font-size="12.188px" font-stretch="Normal" font-weight="700">-40° </tspan></tspan></text><path d="m606.32 244.97h7.5087" fill="none" stroke="#000" stroke-linecap="round" stroke-linejoin="round" stroke-width="1.8772px"/><path d="m40.359 244.97h565.97" fill="none" stroke="#808080" stroke-dasharray="1,1" stroke-linecap="round" stroke-linejoin="round" stroke-width=".93858px"/><text transform="translate(647.62 218.69)" x="-25.874634" y="11.033020" fill="#000000" font-family="Arial" font-size="12.188px" font-stretch="Normal" font-weight="700" letter-spacing="0px" word-spacing="0px" style="line-height:125.000000%" xml:space="preserve"><tspan x="-25.874634" y="11.033020"><tspan dx="0.000000" dy="0.000000" fill="#000000" font-family="Arial" font-size="12.188px" font-stretch="Normal" font-weight="700">-20° </tspan></tspan></text><path d="m606.32 226.2h7.5087" fill="none" stroke="#000" stroke-linecap="round" stroke-linejoin="round" stroke-width="1.8772px"/><path d="m40.359 226.2h565.97" fill="none" stroke="#808080" stroke-dasharray="1,1" stroke-linecap="round" stroke-linejoin="round" stroke-width=".93858px"/><text transform="translate(647.62 198.98)" x="-15.037994" y="11.033020" fill="#000000" font-family="Arial" font-size="12.188px" font-stretch="Normal" font-weight="700" letter-spacing="0px" word-spacing="0px" style="line-height:125.000000%" xml:space="preserve"><tspan x="-15.037994" y="11.033020"><tspan dx="0.000000" dy="0.000000" fill="#000000" font-family="Arial" font-size="12.188px" font-stretch="Normal" font-weight="700">0° </tspan></tspan></text><g fill="none" stroke-linecap="round" stroke-linejoin="round"><path d="m606.32 206.49h7.5087" stroke="#000" stroke-width="1.8772px"/><path d="m40.359 206.49h565.97v173.64h-565.97v-173.64" stroke="#000" stroke-width="1.8772px"/><g stroke="#808080" stroke-dasharray="1,1" stroke-width=".93858px"><path d="m40.359 186.78v-169.88"/><path d="m74.148 186.78v-169.88"/><path d="m94.797 186.78v-169.88"/><path d="m108.88 186.78v-169.88"/><path d="m119.2 186.78v-169.88"/><path d="m128.59 186.78v-169.88"/><path d="m136.09 186.78v-169.88"/><path d="m142.66 186.78v-169.88"/><path d="m148.3 186.78v-169.88"/><path d="m153.93 186.78v-169.88"/><path d="m187.72 186.78v-169.88"/><path d="m207.43 186.78v-169.88"/><path d="m221.51 186.78v-169.88"/><path d="m232.77 186.78v-169.88"/><path d="m241.22 186.78v-169.88"/><path d="m249.66 186.78v-169.88"/><path d="m256.23 186.78v-169.88"/><path d="m261.86 186.78v-169.88"/><path d="m266.56 186.78v-169.88"/><path d="m301.29 186.78v-169.88"/><path d="m321 186.78v-169.88"/><path d="m335.07 186.78v-169.88"/><path d="m345.4 186.78v-169.88"/><path d="m354.78 186.78v-169.88"/><path d="m362.29 186.78v-169.88"/><path d="m368.86 186.78v-169.88"/><path d="m374.49 186.78v-169.88"/><path d="m380.13 186.78v-169.88"/><path d="m413.91 186.78v-169.88"/><path d="m433.63 186.78v-169.88"/><path d="m447.7 186.78v-169.88"/><path d="m458.97 186.78v-169.88"/><path d="m468.35 186.78v-169.88"/><path d="m475.86 186.78v-169.88"/><path d="m482.43 186.78v-169.88"/><path d="m488.06 186.78v-169.88"/><path d="m492.76 186.78v-169.88"/><path d="m527.48 186.78v-169.88"/><path d="m547.19 186.78v-169.88"/><path d="m561.27 186.78v-169.88"/><path d="m572.54 186.78v-169.88"/><path d="m580.98 186.78v-169.88"/><path d="m588.49 186.78v-169.88"/><path d="m595.06 186.78v-169.88"/><path d="m600.69 186.78v-169.88"/><path d="m606.32 186.78v-169.88"/></g></g><text transform="translate(32.85 179.27)" x="-33.860779" y="11.033020" fill="#000000" font-family="Arial" font-size="12.188px" font-stretch="Normal" font-weight="700" letter-spacing="0px" word-spacing="0px" style="line-height:125.000000%" xml:space="preserve"><tspan x="-33.860779" y="11.033020"><tspan dx="0.000000" dy="0.000000" fill="#000000" font-family="Arial" font-size="12.188px" font-stretch="Normal" font-weight="700">-90dB</tspan></tspan></text><path d="m40.359 186.78h-7.5087" fill="none" stroke="#000" stroke-linecap="round" stroke-linejoin="round" stroke-width="1.8772px"/><path d="m40.359 186.78h565.97" fill="none" stroke="#808080" stroke-dasharray="1,1" stroke-linecap="round" stroke-linejoin="round" stroke-width=".93858px"/><text transform="translate(32.85 162.37)" x="-33.860779" y="11.033020" fill="#000000" font-family="Arial" font-size="12.188px" font-stretch="Normal" font-weight="700" letter-spacing="0px" word-spacing="0px" style="line-height:125.000000%" xml:space="preserve"><tspan x="-33.860779" y="11.033020"><tspan dx="0.000000" dy="0.000000" fill="#000000" font-family="Arial" font-size="12.188px" font-stretch="Normal" font-weight="700">-81dB</tspan></tspan></text><path d="m40.359 169.88h-7.5087" fill="none" stroke="#000" stroke-linecap="round" stroke-linejoin="round" stroke-width="1.8772px"/><path d="m40.359 169.88h565.97" fill="none" stroke="#808080" stroke-dasharray="1,1" stroke-linecap="round" stroke-linejoin="round" stroke-width=".93858px"/><text transform="translate(32.85 145.48)" x="-33.860779" y="11.033020" fill="#000000" font-family="Arial" font-size="12.188px" font-stretch="Normal" font-weight="700" letter-spacing="0px" word-spacing="0px" style="line-height:125.000000%" xml:space="preserve"><tspan x="-33.860779" y="11.033020"><tspan dx="0.000000" dy="0.000000" fill="#000000" font-family="Arial" font-size="12.188px" font-stretch="Normal" font-weight="700">-72dB</tspan></tspan></text><path d="m40.359 152.99h-7.5087" fill="none" stroke="#000" stroke-linecap="round" stroke-linejoin="round" stroke-width="1.8772px"/><path d="m40.359 152.99h565.97" fill="none" stroke="#808080" stroke-dasharray="1,1" stroke-linecap="round" stroke-linejoin="round" stroke-width=".93858px"/><text transform="translate(32.85 128.59)" x="-33.860779" y="11.033020" fill="#000000" font-family="Arial" font-size="12.188px" font-stretch="Normal" font-weight="700" letter-spacing="0px" word-spacing="0px" style="line-height:125.000000%" xml:space="preserve"><tspan x="-33.860779" y="11.033020"><tspan dx="0.000000" dy="0.000000" fill="#000000" font-family="Arial" font-size="12.188px" font-stretch="Normal" font-weight="700">-63dB</tspan></tspan></text><path d="m40.359 136.09h-7.5087" fill="none" stroke="#000" stroke-linecap="round" stroke-linejoin="round" stroke-width="1.8772px"/><path d="m40.359 136.09h565.97" fill="none" stroke="#808080" stroke-dasharray="1,1" stroke-linecap="round" stroke-linejoin="round" stroke-width=".93858px"/><text transform="translate(32.85 111.69)" x="-33.860779" y="11.033020" fill="#000000" font-family="Arial" font-size="12.188px" font-stretch="Normal" font-weight="700" letter-spacing="0px" word-spacing="0px" style="line-height:125.000000%" xml:space="preserve"><tspan x="-33.860779" y="11.033020"><tspan dx="0.000000" dy="0.000000" fill="#000000" font-family="Arial" font-size="12.188px" font-stretch="Normal" font-weight="700">-54dB</tspan></tspan></text><path d="m40.359 119.2h-7.5087" fill="none" stroke="#000" stroke-linecap="round" stroke-linejoin="round" stroke-width="1.8772px"/><path d="m40.359 119.2h565.97" fill="none" stroke="#808080" stroke-dasharray="1,1" stroke-linecap="round" stroke-linejoin="round" stroke-width=".93858px"/><text transform="translate(32.85 94.797)" x="-33.860779" y="11.033020" fill="#000000" font-family="Arial" font-size="12.188px" font-stretch="Normal" font-weight="700" letter-spacing="0px" word-spacing="0px" style="line-height:125.000000%" xml:space="preserve"><tspan x="-33.860779" y="11.033020"><tspan dx="0.000000" dy="0.000000" fill="#000000" font-family="Arial" font-size="12.188px" font-stretch="Normal" font-weight="700">-45dB</tspan></tspan></text><path d="m40.359 102.31h-7.5087" fill="none" stroke="#000" stroke-linecap="round" stroke-linejoin="round" stroke-width="1.8772px"/><path d="m40.359 102.31h565.97" fill="none" stroke="#808080" stroke-dasharray="1,1" stroke-linecap="round" stroke-linejoin="round" stroke-width=".93858px"/><text transform="translate(32.85 76.964)" x="-33.860779" y="11.033020" fill="#000000" font-family="Arial" font-size="12.188px" font-stretch="Normal" font-weight="700" letter-spacing="0px" word-spacing="0px" style="line-height:125.000000%" xml:space="preserve"><tspan x="-33.860779" y="11.033020"><tspan dx="0.000000" dy="0.000000" fill="#000000" font-family="Arial" font-size="12.188px" font-stretch="Normal" font-weight="700">-36dB</tspan></tspan></text><path d="m40.359 84.472h-7.5087" fill="none" stroke="#000" stroke-linecap="round" stroke-linejoin="round" stroke-width="1.8772px"/><path d="m40.359 84.472h565.97" fill="none" stroke="#808080" stroke-dasharray="1,1" stroke-linecap="round" stroke-linejoin="round" stroke-width=".93858px"/><text transform="translate(32.85 60.069)" x="-33.860779" y="11.033020" fill="#000000" font-family="Arial" font-size="12.188px" font-stretch="Normal" font-weight="700" letter-spacing="0px" word-spacing="0px" style="line-height:125.000000%" xml:space="preserve"><tspan x="-33.860779" y="11.033020"><tspan dx="0.000000" dy="0.000000" fill="#000000" font-family="Arial" font-size="12.188px" font-stretch="Normal" font-weight="700">-27dB</tspan></tspan></text><path d="m40.359 67.578h-7.5087" fill="none" stroke="#000" stroke-linecap="round" stroke-linejoin="round" stroke-width="1.8772px"/><path d="m40.359 67.578h565.97" fill="none" stroke="#808080" stroke-dasharray="1,1" stroke-linecap="round" stroke-linejoin="round" stroke-width=".93858px"/><text transform="translate(32.85 43.175)" x="-33.860779" y="11.033020" fill="#000000" font-family="Arial" font-size="12.188px" font-stretch="Normal" font-weight="700" letter-spacing="0px" word-spacing="0px" style="line-height:125.000000%" xml:space="preserve"><tspan x="-33.860779" y="11.033020"><tspan dx="0.000000" dy="0.000000" fill="#000000" font-family="Arial" font-size="12.188px" font-stretch="Normal" font-weight="700">-18dB</tspan></tspan></text><path d="m40.359 50.683h-7.5087" fill="none" stroke="#000" stroke-linecap="round" stroke-linejoin="round" stroke-width="1.8772px"/><path d="m40.359 50.683h565.97" fill="none" stroke="#808080" stroke-dasharray="1,1" stroke-linecap="round" stroke-linejoin="round" stroke-width=".93858px"/><text transform="translate(32.85 26.28)" x="-27.082672" y="11.033020" fill="#000000" font-family="Arial" font-size="12.188px" font-stretch="Normal" font-weight="700" letter-spacing="0px" word-spacing="0px" style="line-height:125.000000%" xml:space="preserve"><tspan x="-27.082672" y="11.033020"><tspan dx="0.000000" dy="0.000000" fill="#000000" font-family="Arial" font-size="12.188px" font-stretch="Normal" font-weight="700">-9dB</tspan></tspan></text><path d="m40.359 33.789h-7.5087" fill="none" stroke="#000" stroke-linecap="round" stroke-linejoin="round" stroke-width="1.8772px"/><path d="m40.359 33.789h565.97" fill="none" stroke="#808080" stroke-dasharray="1,1" stroke-linecap="round" stroke-linejoin="round" stroke-width=".93858px"/><text transform="translate(32.85 9.3858)" x="-23.024139" y="11.033020" fill="#000000" font-family="Arial" font-size="12.188px" font-stretch="Normal" font-weight="700" letter-spacing="0px" word-spacing="0px" style="line-height:125.000000%" xml:space="preserve"><tspan x="-23.024139" y="11.033020"><tspan dx="0.000000" dy="0.000000" fill="#000000" font-family="Arial" font-size="12.188px" font-stretch="Normal" font-weight="700">0dB</tspan></tspan></text><g fill="none" stroke-linecap="round" stroke-linejoin="round"><path d="m40.359 16.894h-7.5087" stroke="#000" stroke-width="1.8772px"/><path d="m40.359 16.894h565.97" stroke="#808080" stroke-dasharray="1,1" stroke-width=".93858px"/><path d="m40.359 16.894h565.97v169.88h-565.97v-169.88" stroke="#000" stroke-width="1.8772px"/></g><text transform="translate(322.87 189.59)" x="-17.596893" y="11.033020" fill="#000000" font-family="Arial" font-size="12.188px" font-stretch="Normal" font-weight="700" letter-spacing="0px" word-spacing="0px" style="line-height:125.000000%" xml:space="preserve"><tspan x="-17.596893" y="11.033020"><tspan dx="0.000000" dy="0.000000" fill="#000000" font-family="Arial" font-size="12.188px" font-stretch="Normal" font-weight="700">V(out)</tspan></tspan></text><path d="m40.359 206.49h3.7543 3.7543 3.7543 3.7543 4.6929 3.7543 3.7543l3.7543 0.93858h3.7543 3.7543 3.7543 3.7543 3.7543 3.7543 4.6929 3.7543 3.7543 3.7543 3.7543 3.7543 3.7543l3.7543 0.93858h3.7543 3.7543 4.6929 3.7543 3.7543 3.7543l3.7543 0.93859h3.7543 3.7543 3.7543l3.7543 0.93858h3.7543 4.6929l3.7543 0.93858h3.7543 3.7543l3.7543 0.93859h3.7543l3.7543 0.93858h3.7543l3.7543 0.93858h3.7543l4.6929 0.93858 33.789 8.4472 4.6929 1.8772 3.7543 1.8772 3.7543 0.93858 11.263 5.6315 3.7543 0.93858 3.7543 2.8158 7.5087 3.7543 4.6929 2.8158 3.7543 2.8157 3.7543 1.8772 11.263 8.4472 3.7543 1.8772 2.8158 2.8158 3.7543 2.8157 4.6929 2.8158 2.8157 2.8158 30.035 22.526 4.6929 2.8157 2.8158 2.8158 3.7543 2.8158 4.6929 2.8158 2.8157 2.8158 3.7543 2.8157 2.8158 2.8158 3.7543 1.8772 3.7543 2.8157 2.8158 2.8158 3.7543 1.8772 3.7543 2.8158 2.8158 2.8157 3.7543 1.8772 2.8158 2.8158 3.7543 1.8772 7.5087 5.6315 3.7543 1.8772 7.5087 5.6315 7.5087 3.7543 4.6929 1.8772 11.263 5.6315 3.7543 0.93859 3.7543 1.8772 3.7543 0.93858 3.7543 1.8772 7.5087 1.8772 4.6929 0.93859 18.772 4.6929h3.7543l7.5087 1.8772h3.7543l4.6929 0.93858h3.7543l3.7543 0.93858h3.7543 3.7543l3.7543 0.93858h3.7543 3.7543l3.7543 0.93859h3.7543 4.6929 3.7543l3.7543 0.93858h3.7543 3.7543 3.7543 3.7543 3.7543 3.7543l3.7543 0.93858h4.6929 3.7543 3.7543" fill="none" stroke="#32a852" stroke-dasharray="1, 1" stroke-linecap="round" stroke-linejoin="round" stroke-width="1.8772px"/><text transform="translate(322.87)" x="-17.596893" y="11.033020" fill="#000000" font-family="Arial" font-size="12.188px" font-stretch="Normal" font-weight="700" letter-spacing="0px" word-spacing="0px" style="line-height:125.000000%" xml:space="preserve"><tspan x="-17.596893" y="11.033020"><tspan dx="0.000000" dy="0.000000" fill="#000000" font-family="Arial" font-size="12.188px" font-stretch="Normal" font-weight="700">V(out)</tspan></tspan></text><path d="m40.359 16.894h3.7543 3.7543 3.7543 3.7543 4.6929 3.7543 3.7543 3.7543 3.7543 3.7543 3.7543 3.7543 3.7543 3.7543 4.6929 3.7543 3.7543 3.7543 3.7543 3.7543 3.7543 3.7543 3.7543 3.7543 4.6929 3.7543 3.7543 3.7543 3.7543 3.7543 3.7543 3.7543 3.7543 3.7543 4.6929 3.7543 3.7543 3.7543 3.7543 3.7543 3.7543 3.7543 3.7543 3.7543 4.6929 3.7543 3.7543 3.7543 3.7543 3.7543 3.7543 3.7543l3.7543 0.93858h3.7543 4.6929 3.7543 3.7543 3.7543 3.7543l3.7543 0.93858h3.7543 3.7543 3.7543l3.7543 0.93858h4.6929l3.7543 0.93858h3.7543l3.7543 0.93858h3.7543l11.263 2.8157h3.7543l3.7543 0.93858 4.6929 0.93858 11.263 2.8157 3.7543 1.8772 11.263 2.8157 3.7543 1.8772 3.7543 0.93858 4.6929 1.8772 3.7543 0.93858 3.7543 1.8772 3.7543 0.93858 7.5087 3.7543 3.7543 0.93858 11.263 5.6315 4.6929 1.8772 11.263 5.6315 3.7543 2.8157 7.5087 3.7543 3.7543 2.8157 7.5087 3.7543 4.6929 2.8157 3.7543 2.8157 7.5087 3.7543 2.8158 2.8157 3.7543 1.8772 4.6929 2.8157 3.7543 2.8157 3.7543 1.8772 3.7543 2.8157 4.6929 2.8158 3.7543 2.8157 3.7543 1.8772 7.5087 5.6315 3.7543 1.8772 7.5087 5.6315 3.7543 1.8772 3.7543 2.8158 4.6929 2.8158 7.5087 5.6315 3.7543 1.8772 7.5087 5.6315 3.7543 1.8772 7.5087 5.6315 3.7543 1.8772 4.6929 2.8158 2.8158 2.8158 3.7543 1.8772 2.8158 2.8158 7.5087 3.7543 2.8157 2.8158 3.7543 1.8772 2.8157 2.8157 7.5087 3.7543 2.8158 2.8157 3.7543 1.8772 3.7543 2.8158 1.8772 0.93858" fill="none" stroke="#32a852" stroke-linecap="round" stroke-linejoin="round" stroke-width="1.8772px"/></svg>
