<svg width="158.51mm" height="106.71mm" version="1.0" xmlns="http://www.w3.org/2000/svg"><text transform="translate(50.683 386.7)" x="-21.673279" y="11.033020" fill="#000000" font-family="Arial" font-size="12.188px" font-stretch="Normal" font-weight="700" letter-spacing="0px" word-spacing="0px" style="line-height:125.000000%" xml:space="preserve"><tspan x="-21.673279" y="11.033020"><tspan dx="0.000000" dy="0.000000" fill="#000000" font-family="Arial" font-size="12.188px" font-stretch="Normal" font-weight="700">1Hz</tspan></tspan></text><g fill="none" stroke-linecap="round" stroke-linejoin="round"><path d="m40.359 379.19v7.5087" stroke="#000" stroke-width="1.8772px"/><path d="m40.359 379.19v-172.7" stroke="#808080" stroke-dasharray="1,1" stroke-width=".93858px"/><path d="m70.394 379.19v3.7543" stroke="#000" stroke-width="1.8772px"/><path d="m70.394 379.19v-172.7" stroke="#808080" stroke-dasharray="1,1" stroke-width=".93858px"/><path d="m88.227 379.19v3.7543" stroke="#000" stroke-width="1.8772px"/><path d="m88.227 379.19v-172.7" stroke="#808080" stroke-dasharray="1,1" stroke-width=".93858px"/><path d="m101.37 379.19v3.7543" stroke="#000" stroke-width="1.8772px"/><path d="m101.37 379.19v-172.7" stroke="#808080" stroke-dasharray="1,1" stroke-width=".93858px"/><path d="m110.75 379.19v3.7543" stroke="#000" stroke-width="1.8772px"/><path d="m110.75 379.19v-172.7" stroke="#808080" stroke-dasharray="1,1" stroke-width=".93858px"/><path d="m119.2 379.19v3.7543" stroke="#000" stroke-width="1.8772px"/><path d="m119.2 379.19v-172.7" stroke="#808080" stroke-dasharray="1,1" stroke-width=".93858px"/><path d="m125.77 379.19v3.7543" stroke="#000" stroke-width="1.8772px"/><path d="m125.77 379.19v-172.7" stroke="#808080" stroke-dasharray="1,1" stroke-width=".93858px"/><path d="m131.4 379.19v3.7543" stroke="#000" stroke-width="1.8772px"/><path d="m131.4 379.19v-172.7" stroke="#808080" stroke-dasharray="1,1" stroke-width=".93858px"/><path d="m137.03 379.19v3.7543" stroke="#000" stroke-width="1.8772px"/><path d="m137.03 379.19v-172.7" stroke="#808080" stroke-dasharray="1,1" stroke-width=".93858px"/></g><text transform="translate(155.8 386.7)" x="-28.451385" y="11.033020" fill="#000000" font-family="Arial" font-size="12.188px" font-stretch="Normal" font-weight="700" letter-spacing="0px" word-spacing="0px" style="line-height:125.000000%" xml:space="preserve"><tspan x="-28.451385" y="11.033020"><tspan dx="0.000000" dy="0.000000" fill="#000000" font-family="Arial" font-size="12.188px" font-stretch="Normal" font-weight="700">10Hz</tspan></tspan></text><g fill="none" stroke-linecap="round" stroke-linejoin="round"><path d="m141.73 379.19v7.5087" stroke="#000" stroke-width="1.8772px"/><path d="m141.73 379.19v-172.7" stroke="#808080" stroke-dasharray="1,1" stroke-width=".93858px"/><path d="m171.76 379.19v3.7543" stroke="#000" stroke-width="1.8772px"/><path d="m171.76 379.19v-172.7" stroke="#808080" stroke-dasharray="1,1" stroke-width=".93858px"/><path d="m189.59 379.19v3.7543" stroke="#000" stroke-width="1.8772px"/><path d="m189.59 379.19v-172.7" stroke="#808080" stroke-dasharray="1,1" stroke-width=".93858px"/><path d="m201.8 379.19v3.7543" stroke="#000" stroke-width="1.8772px"/><path d="m201.8 379.19v-172.7" stroke="#808080" stroke-dasharray="1,1" stroke-width=".93858px"/><path d="m212.12 379.19v3.7543" stroke="#000" stroke-width="1.8772px"/><path d="m212.12 379.19v-172.7" stroke="#808080" stroke-dasharray="1,1" stroke-width=".93858px"/><path d="m219.63 379.19v3.7543" stroke="#000" stroke-width="1.8772px"/><path d="m219.63 379.19v-172.7" stroke="#808080" stroke-dasharray="1,1" stroke-width=".93858px"/><path d="m227.14 379.19v3.7543" stroke="#000" stroke-width="1.8772px"/><path d="m227.14 379.19v-172.7" stroke="#808080" stroke-dasharray="1,1" stroke-width=".93858px"/><path d="m232.77 379.19v3.7543" stroke="#000" stroke-width="1.8772px"/><path d="m232.77 379.19v-172.7" stroke="#808080" stroke-dasharray="1,1" stroke-width=".93858px"/><path d="m237.46 379.19v3.7543" stroke="#000" stroke-width="1.8772px"/><path d="m237.46 379.19v-172.7" stroke="#808080" stroke-dasharray="1,1" stroke-width=".93858px"/></g><text transform="translate(259.05 386.7)" x="-35.229492" y="11.033020" fill="#000000" font-family="Arial" font-size="12.188px" font-stretch="Normal" font-weight="700" letter-spacing="0px" word-spacing="0px" style="line-height:125.000000%" xml:space="preserve"><tspan x="-35.229492" y="11.033020"><tspan dx="0.000000" dy="0.000000" fill="#000000" font-family="Arial" font-size="12.188px" font-stretch="Normal" font-weight="700">100Hz</tspan></tspan></text><g fill="none" stroke-linecap="round" stroke-linejoin="round"><path d="m242.15 379.19v7.5087" stroke="#000" stroke-width="1.8772px"/><path d="m242.15 379.19v-172.7" stroke="#808080" stroke-dasharray="1,1" stroke-width=".93858px"/><path d="m273.13 379.19v3.7543" stroke="#000" stroke-width="1.8772px"/><path d="m273.13 379.19v-172.7" stroke="#808080" stroke-dasharray="1,1" stroke-width=".93858px"/><path d="m290.96 379.19v3.7543" stroke="#000" stroke-width="1.8772px"/><path d="m290.96 379.19v-172.7" stroke="#808080" stroke-dasharray="1,1" stroke-width=".93858px"/><path d="m303.16 379.19v3.7543" stroke="#000" stroke-width="1.8772px"/><path d="m303.16 379.19v-172.7" stroke="#808080" stroke-dasharray="1,1" stroke-width=".93858px"/><path d="m312.55 379.19v3.7543" stroke="#000" stroke-width="1.8772px"/><path d="m312.55 379.19v-172.7" stroke="#808080" stroke-dasharray="1,1" stroke-width=".93858px"/><path d="m321 379.19v3.7543" stroke="#000" stroke-width="1.8772px"/><path d="m321 379.19v-172.7" stroke="#808080" stroke-dasharray="1,1" stroke-width=".93858px"/><path d="m327.57 379.19v3.7543" stroke="#000" stroke-width="1.8772px"/><path d="m327.57 379.19v-172.7" stroke="#808080" stroke-dasharray="1,1" stroke-width=".93858px"/><path d="m333.2 379.19v3.7543" stroke="#000" stroke-width="1.8772px"/><path d="m333.2 379.19v-172.7" stroke="#808080" stroke-dasharray="1,1" stroke-width=".93858px"/><path d="m338.83 379.19v3.7543" stroke="#000" stroke-width="1.8772px"/><path d="m338.83 379.19v-172.7" stroke="#808080" stroke-dasharray="1,1" stroke-width=".93858px"/></g><text transform="translate(358.54 386.7)" x="-30.474701" y="11.033020" fill="#000000" font-family="Arial" font-size="12.188px" font-stretch="Normal" font-weight="700" letter-spacing="0px" word-spacing="0px" style="line-height:125.000000%" xml:space="preserve"><tspan x="-30.474701" y="11.033020"><tspan dx="0.000000" dy="0.000000" fill="#000000" font-family="Arial" font-size="12.188px" font-stretch="Normal" font-weight="700">1KHz</tspan></tspan></text><g fill="none" stroke-linecap="round" stroke-linejoin="round"><path d="m343.52 379.19v7.5087" stroke="#000" stroke-width="1.8772px"/><path d="m343.52 379.19v-172.7" stroke="#808080" stroke-dasharray="1,1" stroke-width=".93858px"/><path d="m373.56 379.19v3.7543" stroke="#000" stroke-width="1.8772px"/><path d="m373.56 379.19v-172.7" stroke="#808080" stroke-dasharray="1,1" stroke-width=".93858px"/><path d="m391.39 379.19v3.7543" stroke="#000" stroke-width="1.8772px"/><path d="m391.39 379.19v-172.7" stroke="#808080" stroke-dasharray="1,1" stroke-width=".93858px"/><path d="m404.53 379.19v3.7543" stroke="#000" stroke-width="1.8772px"/><path d="m404.53 379.19v-172.7" stroke="#808080" stroke-dasharray="1,1" stroke-width=".93858px"/><path d="m413.91 379.19v3.7543" stroke="#000" stroke-width="1.8772px"/><path d="m413.91 379.19v-172.7" stroke="#808080" stroke-dasharray="1,1" stroke-width=".93858px"/><path d="m422.36 379.19v3.7543" stroke="#000" stroke-width="1.8772px"/><path d="m422.36 379.19v-172.7" stroke="#808080" stroke-dasharray="1,1" stroke-width=".93858px"/><path d="m428.93 379.19v3.7543" stroke="#000" stroke-width="1.8772px"/><path d="m428.93 379.19v-172.7" stroke="#808080" stroke-dasharray="1,1" stroke-width=".93858px"/><path d="m434.56 379.19v3.7543" stroke="#000" stroke-width="1.8772px"/><path d="m434.56 379.19v-172.7" stroke="#808080" stroke-dasharray="1,1" stroke-width=".93858px"/><path d="m439.26 379.19v3.7543" stroke="#000" stroke-width="1.8772px"/><path d="m439.26 379.19v-172.7" stroke="#808080" stroke-dasharray="1,1" stroke-width=".93858px"/></g><text transform="translate(461.78 386.7)" x="-37.252808" y="11.033020" fill="#000000" font-family="Arial" font-size="12.188px" font-stretch="Normal" font-weight="700" letter-spacing="0px" word-spacing="0px" style="line-height:125.000000%" xml:space="preserve"><tspan x="-37.252808" y="11.033020"><tspan dx="0.000000" dy="0.000000" fill="#000000" font-family="Arial" font-size="12.188px" font-stretch="Normal" font-weight="700">10KHz</tspan></tspan></text><g fill="none" stroke-linecap="round" stroke-linejoin="round"><path d="m443.95 379.19v7.5087" stroke="#000" stroke-width="1.8772px"/><path d="m443.95 379.19v-172.7" stroke="#808080" stroke-dasharray="1,1" stroke-width=".93858px"/><path d="m474.92 379.19v3.7543" stroke="#000" stroke-width="1.8772px"/><path d="m474.92 379.19v-172.7" stroke="#808080" stroke-dasharray="1,1" stroke-width=".93858px"/><path d="m492.76 379.19v3.7543" stroke="#000" stroke-width="1.8772px"/><path d="m492.76 379.19v-172.7" stroke="#808080" stroke-dasharray="1,1" stroke-width=".93858px"/><path d="m504.96 379.19v3.7543" stroke="#000" stroke-width="1.8772px"/><path d="m504.96 379.19v-172.7" stroke="#808080" stroke-dasharray="1,1" stroke-width=".93858px"/><path d="m515.28 379.19v3.7543" stroke="#000" stroke-width="1.8772px"/><path d="m515.28 379.19v-172.7" stroke="#808080" stroke-dasharray="1,1" stroke-width=".93858px"/><path d="m522.79 379.19v3.7543" stroke="#000" stroke-width="1.8772px"/><path d="m522.79 379.19v-172.7" stroke="#808080" stroke-dasharray="1,1" stroke-width=".93858px"/><path d="m529.36 379.19v3.7543" stroke="#000" stroke-width="1.8772px"/><path d="m529.36 379.19v-172.7" stroke="#808080" stroke-dasharray="1,1" stroke-width=".93858px"/><path d="m535.93 379.19v3.7543" stroke="#000" stroke-width="1.8772px"/><path d="m535.93 379.19v-172.7" stroke="#808080" stroke-dasharray="1,1" stroke-width=".93858px"/><path d="m540.62 379.19v3.7543" stroke="#000" stroke-width="1.8772px"/><path d="m540.62 379.19v-172.7" stroke="#808080" stroke-dasharray="1,1" stroke-width=".93858px"/></g><text transform="translate(566.9 386.7)" x="-44.030914" y="11.033020" fill="#000000" font-family="Arial" font-size="12.188px" font-stretch="Normal" font-weight="700" letter-spacing="0px" word-spacing="0px" style="line-height:125.000000%" xml:space="preserve"><tspan x="-44.030914" y="11.033020"><tspan dx="0.000000" dy="0.000000" fill="#000000" font-family="Arial" font-size="12.188px" font-stretch="Normal" font-weight="700">100KHz</tspan></tspan></text><path d="m545.32 379.19v7.5087" fill="none" stroke="#000" stroke-linecap="round" stroke-linejoin="round" stroke-width="1.8772px"/><path d="m545.32 379.19v-172.7" fill="none" stroke="#808080" stroke-dasharray="1,1" stroke-linecap="round" stroke-linejoin="round" stroke-width=".93858px"/><text transform="translate(586.61 371.68)" x="-32.652740" y="11.033020" fill="#000000" font-family="Arial" font-size="12.188px" font-stretch="Normal" font-weight="700" letter-spacing="0px" word-spacing="0px" style="line-height:125.000000%" xml:space="preserve"><tspan x="-32.652740" y="11.033020"><tspan dx="0.000000" dy="0.000000" fill="#000000" font-family="Arial" font-size="12.188px" font-stretch="Normal" font-weight="700">-180° </tspan></tspan></text><path d="m545.32 379.19h7.5087" fill="none" stroke="#000" stroke-linecap="round" stroke-linejoin="round" stroke-width="1.8772px"/><text transform="translate(586.61 352.91)" x="-32.652740" y="11.033020" fill="#000000" font-family="Arial" font-size="12.188px" font-stretch="Normal" font-weight="700" letter-spacing="0px" word-spacing="0px" style="line-height:125.000000%" xml:space="preserve"><tspan x="-32.652740" y="11.033020"><tspan dx="0.000000" dy="0.000000" fill="#000000" font-family="Arial" font-size="12.188px" font-stretch="Normal" font-weight="700">-160° </tspan></tspan></text><path d="m545.32 360.42h7.5087" fill="none" stroke="#000" stroke-linecap="round" stroke-linejoin="round" stroke-width="1.8772px"/><path d="m40.359 360.42h504.96" fill="none" stroke="#808080" stroke-dasharray="1,1" stroke-linecap="round" stroke-linejoin="round" stroke-width=".93858px"/><text transform="translate(586.61 333.2)" x="-32.652740" y="11.033020" fill="#000000" font-family="Arial" font-size="12.188px" font-stretch="Normal" font-weight="700" letter-spacing="0px" word-spacing="0px" style="line-height:125.000000%" xml:space="preserve"><tspan x="-32.652740" y="11.033020"><tspan dx="0.000000" dy="0.000000" fill="#000000" font-family="Arial" font-size="12.188px" font-stretch="Normal" font-weight="700">-140° </tspan></tspan></text><path d="m545.32 340.71h7.5087" fill="none" stroke="#000" stroke-linecap="round" stroke-linejoin="round" stroke-width="1.8772px"/><path d="m40.359 340.71h504.96" fill="none" stroke="#808080" stroke-dasharray="1,1" stroke-linecap="round" stroke-linejoin="round" stroke-width=".93858px"/><text transform="translate(586.61 314.43)" x="-32.652740" y="11.033020" fill="#000000" font-family="Arial" font-size="12.188px" font-stretch="Normal" font-weight="700" letter-spacing="0px" word-spacing="0px" style="line-height:125.000000%" xml:space="preserve"><tspan x="-32.652740" y="11.033020"><tspan dx="0.000000" dy="0.000000" fill="#000000" font-family="Arial" font-size="12.188px" font-stretch="Normal" font-weight="700">-120° </tspan></tspan></text><path d="m545.32 321.93h7.5087" fill="none" stroke="#000" stroke-linecap="round" stroke-linejoin="round" stroke-width="1.8772px"/><path d="m40.359 321.93h504.96" fill="none" stroke="#808080" stroke-dasharray="1,1" stroke-linecap="round" stroke-linejoin="round" stroke-width=".93858px"/><text transform="translate(586.61 294.71)" x="-32.652740" y="11.033020" fill="#000000" font-family="Arial" font-size="12.188px" font-stretch="Normal" font-weight="700" letter-spacing="0px" word-spacing="0px" style="line-height:125.000000%" xml:space="preserve"><tspan x="-32.652740" y="11.033020"><tspan dx="0.000000" dy="0.000000" fill="#000000" font-family="Arial" font-size="12.188px" font-stretch="Normal" font-weight="700">-100° </tspan></tspan></text><path d="m545.32 302.22h7.5087" fill="none" stroke="#000" stroke-linecap="round" stroke-linejoin="round" stroke-width="1.8772px"/><path d="m40.359 302.22h504.96" fill="none" stroke="#808080" stroke-dasharray="1,1" stroke-linecap="round" stroke-linejoin="round" stroke-width=".93858px"/><text transform="translate(586.61 275.94)" x="-25.874634" y="11.033020" fill="#000000" font-family="Arial" font-size="12.188px" font-stretch="Normal" font-weight="700" letter-spacing="0px" word-spacing="0px" style="line-height:125.000000%" xml:space="preserve"><tspan x="-25.874634" y="11.033020"><tspan dx="0.000000" dy="0.000000" fill="#000000" font-family="Arial" font-size="12.188px" font-stretch="Normal" font-weight="700">-80° </tspan></tspan></text><path d="m545.32 283.45h7.5087" fill="none" stroke="#000" stroke-linecap="round" stroke-linejoin="round" stroke-width="1.8772px"/><path d="m40.359 283.45h504.96" fill="none" stroke="#808080" stroke-dasharray="1,1" stroke-linecap="round" stroke-linejoin="round" stroke-width=".93858px"/><text transform="translate(586.61 256.23)" x="-25.874634" y="11.033020" fill="#000000" font-family="Arial" font-size="12.188px" font-stretch="Normal" font-weight="700" letter-spacing="0px" word-spacing="0px" style="line-height:125.000000%" xml:space="preserve"><tspan x="-25.874634" y="11.033020"><tspan dx="0.000000" dy="0.000000" fill="#000000" font-family="Arial" font-size="12.188px" font-stretch="Normal" font-weight="700">-60° </tspan></tspan></text><path d="m545.32 263.74h7.5087" fill="none" stroke="#000" stroke-linecap="round" stroke-linejoin="round" stroke-width="1.8772px"/><path d="m40.359 263.74h504.96" fill="none" stroke="#808080" stroke-dasharray="1,1" stroke-linecap="round" stroke-linejoin="round" stroke-width=".93858px"/><text transform="translate(586.61 237.46)" x="-25.874634" y="11.033020" fill="#000000" font-family="Arial" font-size="12.188px" font-stretch="Normal" font-weight="700" letter-spacing="0px" word-spacing="0px" style="line-height:125.000000%" xml:space="preserve"><tspan x="-25.874634" y="11.033020"><tspan dx="0.000000" dy="0.000000" fill="#000000" font-family="Arial" font-size="12.188px" font-stretch="Normal" font-weight="700">-40° </tspan></tspan></text><path d="m545.32 244.97h7.5087" fill="none" stroke="#000" stroke-linecap="round" stroke-linejoin="round" stroke-width="1.8772px"/><path d="m40.359 244.97h504.96" fill="none" stroke="#808080" stroke-dasharray="1,1" stroke-linecap="round" stroke-linejoin="round" stroke-width=".93858px"/><text transform="translate(586.61 217.75)" x="-25.874634" y="11.033020" fill="#000000" font-family="Arial" font-size="12.188px" font-stretch="Normal" font-weight="700" letter-spacing="0px" word-spacing="0px" style="line-height:125.000000%" xml:space="preserve"><tspan x="-25.874634" y="11.033020"><tspan dx="0.000000" dy="0.000000" fill="#000000" font-family="Arial" font-size="12.188px" font-stretch="Normal" font-weight="700">-20° </tspan></tspan></text><path d="m545.32 225.26h7.5087" fill="none" stroke="#000" stroke-linecap="round" stroke-linejoin="round" stroke-width="1.8772px"/><path d="m40.359 225.26h504.96" fill="none" stroke="#808080" stroke-dasharray="1,1" stroke-linecap="round" stroke-linejoin="round" stroke-width=".93858px"/><text transform="translate(586.61 198.98)" x="-15.037994" y="11.033020" fill="#000000" font-family="Arial" font-size="12.188px" font-stretch="Normal" font-weight="700" letter-spacing="0px" word-spacing="0px" style="line-height:125.000000%" xml:space="preserve"><tspan x="-15.037994" y="11.033020"><tspan dx="0.000000" dy="0.000000" fill="#000000" font-family="Arial" font-size="12.188px" font-stretch="Normal" font-weight="700">0° </tspan></tspan></text><g fill="none" stroke-linecap="round" stroke-linejoin="round"><path d="m545.32 206.49h7.5087" stroke="#000" stroke-width="1.8772px"/><path d="m40.359 206.49h504.96v172.7h-504.96v-172.7" stroke="#000" stroke-width="1.8772px"/><g stroke="#808080" stroke-dasharray="1,1" stroke-width=".93858px"><path d="m40.359 186.78v-169.88"/><path d="m70.394 186.78v-169.88"/><path d="m88.227 186.78v-169.88"/><path d="m101.37 186.78v-169.88"/><path d="m110.75 186.78v-169.88"/><path d="m119.2 186.78v-169.88"/><path d="m125.77 186.78v-169.88"/><path d="m131.4 186.78v-169.88"/><path d="m137.03 186.78v-169.88"/><path d="m141.73 186.78v-169.88"/><path d="m171.76 186.78v-169.88"/><path d="m189.59 186.78v-169.88"/><path d="m201.8 186.78v-169.88"/><path d="m212.12 186.78v-169.88"/><path d="m219.63 186.78v-169.88"/><path d="m227.14 186.78v-169.88"/><path d="m232.77 186.78v-169.88"/><path d="m237.46 186.78v-169.88"/><path d="m242.15 186.78v-169.88"/><path d="m273.13 186.78v-169.88"/><path d="m290.96 186.78v-169.88"/><path d="m303.16 186.78v-169.88"/><path d="m312.55 186.78v-169.88"/><path d="m321 186.78v-169.88"/><path d="m327.57 186.78v-169.88"/><path d="m333.2 186.78v-169.88"/><path d="m338.83 186.78v-169.88"/><path d="m343.52 186.78v-169.88"/><path d="m373.56 186.78v-169.88"/><path d="m391.39 186.78v-169.88"/><path d="m404.53 186.78v-169.88"/><path d="m413.91 186.78v-169.88"/><path d="m422.36 186.78v-169.88"/><path d="m428.93 186.78v-169.88"/><path d="m434.56 186.78v-169.88"/><path d="m439.26 186.78v-169.88"/><path d="m443.95 186.78v-169.88"/><path d="m474.92 186.78v-169.88"/><path d="m492.76 186.78v-169.88"/><path d="m504.96 186.78v-169.88"/><path d="m515.28 186.78v-169.88"/><path d="m522.79 186.78v-169.88"/><path d="m529.36 186.78v-169.88"/><path d="m535.93 186.78v-169.88"/><path d="m540.62 186.78v-169.88"/><path d="m545.32 186.78v-169.88"/></g></g><text transform="translate(32.85 179.27)" x="-33.860779" y="11.033020" fill="#000000" font-family="Arial" font-size="12.188px" font-stretch="Normal" font-weight="700" letter-spacing="0px" word-spacing="0px" style="line-height:125.000000%" xml:space="preserve"><tspan x="-33.860779" y="11.033020"><tspan dx="0.000000" dy="0.000000" fill="#000000" font-family="Arial" font-size="12.188px" font-stretch="Normal" font-weight="700">-90dB</tspan></tspan></text><path d="m40.359 186.78h-7.5087" fill="none" stroke="#000" stroke-linecap="round" stroke-linejoin="round" stroke-width="1.8772px"/><path d="m40.359 186.78h504.96" fill="none" stroke="#808080" stroke-dasharray="1,1" stroke-linecap="round" stroke-linejoin="round" stroke-width=".93858px"/><text transform="translate(32.85 162.37)" x="-33.860779" y="11.033020" fill="#000000" font-family="Arial" font-size="12.188px" font-stretch="Normal" font-weight="700" letter-spacing="0px" word-spacing="0px" style="line-height:125.000000%" xml:space="preserve"><tspan x="-33.860779" y="11.033020"><tspan dx="0.000000" dy="0.000000" fill="#000000" font-family="Arial" font-size="12.188px" font-stretch="Normal" font-weight="700">-81dB</tspan></tspan></text><path d="m40.359 169.88h-7.5087" fill="none" stroke="#000" stroke-linecap="round" stroke-linejoin="round" stroke-width="1.8772px"/><path d="m40.359 169.88h504.96" fill="none" stroke="#808080" stroke-dasharray="1,1" stroke-linecap="round" stroke-linejoin="round" stroke-width=".93858px"/><text transform="translate(32.85 145.48)" x="-33.860779" y="11.033020" fill="#000000" font-family="Arial" font-size="12.188px" font-stretch="Normal" font-weight="700" letter-spacing="0px" word-spacing="0px" style="line-height:125.000000%" xml:space="preserve"><tspan x="-33.860779" y="11.033020"><tspan dx="0.000000" dy="0.000000" fill="#000000" font-family="Arial" font-size="12.188px" font-stretch="Normal" font-weight="700">-72dB</tspan></tspan></text><path d="m40.359 152.99h-7.5087" fill="none" stroke="#000" stroke-linecap="round" stroke-linejoin="round" stroke-width="1.8772px"/><path d="m40.359 152.99h504.96" fill="none" stroke="#808080" stroke-dasharray="1,1" stroke-linecap="round" stroke-linejoin="round" stroke-width=".93858px"/><text transform="translate(32.85 128.59)" x="-33.860779" y="11.033020" fill="#000000" font-family="Arial" font-size="12.188px" font-stretch="Normal" font-weight="700" letter-spacing="0px" word-spacing="0px" style="line-height:125.000000%" xml:space="preserve"><tspan x="-33.860779" y="11.033020"><tspan dx="0.000000" dy="0.000000" fill="#000000" font-family="Arial" font-size="12.188px" font-stretch="Normal" font-weight="700">-63dB</tspan></tspan></text><path d="m40.359 136.09h-7.5087" fill="none" stroke="#000" stroke-linecap="round" stroke-linejoin="round" stroke-width="1.8772px"/><path d="m40.359 136.09h504.96" fill="none" stroke="#808080" stroke-dasharray="1,1" stroke-linecap="round" stroke-linejoin="round" stroke-width=".93858px"/><text transform="translate(32.85 111.69)" x="-33.860779" y="11.033020" fill="#000000" font-family="Arial" font-size="12.188px" font-stretch="Normal" font-weight="700" letter-spacing="0px" word-spacing="0px" style="line-height:125.000000%" xml:space="preserve"><tspan x="-33.860779" y="11.033020"><tspan dx="0.000000" dy="0.000000" fill="#000000" font-family="Arial" font-size="12.188px" font-stretch="Normal" font-weight="700">-54dB</tspan></tspan></text><path d="m40.359 119.2h-7.5087" fill="none" stroke="#000" stroke-linecap="round" stroke-linejoin="round" stroke-width="1.8772px"/><path d="m40.359 119.2h504.96" fill="none" stroke="#808080" stroke-dasharray="1,1" stroke-linecap="round" stroke-linejoin="round" stroke-width=".93858px"/><text transform="translate(32.85 94.797)" x="-33.860779" y="11.033020" fill="#000000" font-family="Arial" font-size="12.188px" font-stretch="Normal" font-weight="700" letter-spacing="0px" word-spacing="0px" style="line-height:125.000000%" xml:space="preserve"><tspan x="-33.860779" y="11.033020"><tspan dx="0.000000" dy="0.000000" fill="#000000" font-family="Arial" font-size="12.188px" font-stretch="Normal" font-weight="700">-45dB</tspan></tspan></text><path d="m40.359 102.31h-7.5087" fill="none" stroke="#000" stroke-linecap="round" stroke-linejoin="round" stroke-width="1.8772px"/><path d="m40.359 102.31h504.96" fill="none" stroke="#808080" stroke-dasharray="1,1" stroke-linecap="round" stroke-linejoin="round" stroke-width=".93858px"/><text transform="translate(32.85 76.964)" x="-33.860779" y="11.033020" fill="#000000" font-family="Arial" font-size="12.188px" font-stretch="Normal" font-weight="700" letter-spacing="0px" word-spacing="0px" style="line-height:125.000000%" xml:space="preserve"><tspan x="-33.860779" y="11.033020"><tspan dx="0.000000" dy="0.000000" fill="#000000" font-family="Arial" font-size="12.188px" font-stretch="Normal" font-weight="700">-36dB</tspan></tspan></text><path d="m40.359 84.472h-7.5087" fill="none" stroke="#000" stroke-linecap="round" stroke-linejoin="round" stroke-width="1.8772px"/><path d="m40.359 84.472h504.96" fill="none" stroke="#808080" stroke-dasharray="1,1" stroke-linecap="round" stroke-linejoin="round" stroke-width=".93858px"/><text transform="translate(32.85 60.069)" x="-33.860779" y="11.033020" fill="#000000" font-family="Arial" font-size="12.188px" font-stretch="Normal" font-weight="700" letter-spacing="0px" word-spacing="0px" style="line-height:125.000000%" xml:space="preserve"><tspan x="-33.860779" y="11.033020"><tspan dx="0.000000" dy="0.000000" fill="#000000" font-family="Arial" font-size="12.188px" font-stretch="Normal" font-weight="700">-27dB</tspan></tspan></text><path d="m40.359 67.578h-7.5087" fill="none" stroke="#000" stroke-linecap="round" stroke-linejoin="round" stroke-width="1.8772px"/><path d="m40.359 67.578h504.96" fill="none" stroke="#808080" stroke-dasharray="1,1" stroke-linecap="round" stroke-linejoin="round" stroke-width=".93858px"/><text transform="translate(32.85 43.175)" x="-33.860779" y="11.033020" fill="#000000" font-family="Arial" font-size="12.188px" font-stretch="Normal" font-weight="700" letter-spacing="0px" word-spacing="0px" style="line-height:125.000000%" xml:space="preserve"><tspan x="-33.860779" y="11.033020"><tspan dx="0.000000" dy="0.000000" fill="#000000" font-family="Arial" font-size="12.188px" font-stretch="Normal" font-weight="700">-18dB</tspan></tspan></text><path d="m40.359 50.683h-7.5087" fill="none" stroke="#000" stroke-linecap="round" stroke-linejoin="round" stroke-width="1.8772px"/><path d="m40.359 50.683h504.96" fill="none" stroke="#808080" stroke-dasharray="1,1" stroke-linecap="round" stroke-linejoin="round" stroke-width=".93858px"/><text transform="translate(32.85 26.28)" x="-27.082672" y="11.033020" fill="#000000" font-family="Arial" font-size="12.188px" font-stretch="Normal" font-weight="700" letter-spacing="0px" word-spacing="0px" style="line-height:125.000000%" xml:space="preserve"><tspan x="-27.082672" y="11.033020"><tspan dx="0.000000" dy="0.000000" fill="#000000" font-family="Arial" font-size="12.188px" font-stretch="Normal" font-weight="700">-9dB</tspan></tspan></text><path d="m40.359 33.789h-7.5087" fill="none" stroke="#000" stroke-linecap="round" stroke-linejoin="round" stroke-width="1.8772px"/><path d="m40.359 33.789h504.96" fill="none" stroke="#808080" stroke-dasharray="1,1" stroke-linecap="round" stroke-linejoin="round" stroke-width=".93858px"/><text transform="translate(32.85 9.3858)" x="-23.024139" y="11.033020" fill="#000000" font-family="Arial" font-size="12.188px" font-stretch="Normal" font-weight="700" letter-spacing="0px" word-spacing="0px" style="line-height:125.000000%" xml:space="preserve"><tspan x="-23.024139" y="11.033020"><tspan dx="0.000000" dy="0.000000" fill="#000000" font-family="Arial" font-size="12.188px" font-stretch="Normal" font-weight="700">0dB</tspan></tspan></text><g fill="none" stroke-linecap="round" stroke-linejoin="round"><path d="m40.359 16.894h-7.5087" stroke="#000" stroke-width="1.8772px"/><path d="m40.359 16.894h504.96" stroke="#808080" stroke-dasharray="1,1" stroke-width=".93858px"/><path d="m40.359 16.894h504.96v169.88h-504.96v-169.88" stroke="#000" stroke-width="1.8772px"/></g><text transform="translate(292.84 189.59)" x="-17.596893" y="11.033020" fill="#000000" font-family="Arial" font-size="12.188px" font-stretch="Normal" font-weight="700" letter-spacing="0px" word-spacing="0px" style="line-height:125.000000%" xml:space="preserve"><tspan x="-17.596893" y="11.033020"><tspan dx="0.000000" dy="0.000000" fill="#000000" font-family="Arial" font-size="12.188px" font-stretch="Normal" font-weight="700">V(out)</tspan></tspan></text><path d="m40.359 206.49h3.7543 3.7543 3.7543 3.7543 3.7543 3.7543 3.7543 3.7543 3.7543 3.7543 3.7543l3.7543 0.93858h3.7543 3.7543 3.7543 4.6929 3.7543 3.7543 3.7543 3.7543 3.7543 3.7543 3.7543 3.7543l3.7543 0.93858h3.7543 3.7543 3.7543 3.7543 3.7543l3.7543 0.93859h3.7543 3.7543 3.7543l3.7543 0.93858h3.7543 4.6929l3.7543 0.93858h3.7543l3.7543 0.93859h3.7543l7.5087 1.8772h3.7543l11.263 2.8158h3.7543l3.7543 1.8772 11.263 2.8158 3.7543 1.8772 3.7543 0.93858 11.263 5.6315 4.6929 1.8772 3.7543 2.8158 3.7543 1.8772 11.263 8.4472 2.8158 2.8158 4.6929 2.8157 5.6315 5.6315 2.8157 3.7543 9.3858 9.3858 5.6315 7.5087 3.7543 3.7543 8.4472 11.263 3.7543 3.7543 11.263 15.017 3.7543 2.8157 5.6315 7.5087 17.833 17.833 3.7543 1.8772 2.8158 2.8158 3.7543 2.8158 4.6929 2.8158 3.7543 2.8157 18.772 9.3858 3.7543 0.93858 3.7543 1.8772 18.772 4.6929 4.6929 0.93858 11.263 2.8158h3.7543l3.7543 0.93859h3.7543l3.7543 0.93858h3.7543l3.7543 0.93858h3.7543 3.7543l3.7543 0.93858h3.7543 3.7543 3.7543l3.7543 0.93859h3.7543 3.7543 3.7543l3.7543 0.93858h4.6929 3.7543 3.7543 3.7543 3.7543 3.7543l3.7543 0.93858h3.7543 3.7543 1.8772" fill="none" stroke="#148873" stroke-dasharray="1, 1" stroke-linecap="round" stroke-linejoin="round" stroke-width="1.8772px"/><text transform="translate(292.84)" x="-17.596893" y="11.033020" fill="#000000" font-family="Arial" font-size="12.188px" font-stretch="Normal" font-weight="700" letter-spacing="0px" word-spacing="0px" style="line-height:125.000000%" xml:space="preserve"><tspan x="-17.596893" y="11.033020"><tspan dx="0.000000" dy="0.000000" fill="#000000" font-family="Arial" font-size="12.188px" font-stretch="Normal" font-weight="700">V(out)</tspan></tspan></text><path d="m40.359 16.894h3.7543 3.7543 3.7543 3.7543 3.7543 3.7543 3.7543 3.7543 3.7543 3.7543 3.7543 3.7543 3.7543 3.7543 3.7543 4.6929 3.7543 3.7543 3.7543 3.7543 3.7543 3.7543 3.7543 3.7543 3.7543 3.7543 3.7543 3.7543 3.7543 3.7543 3.7543 3.7543 3.7543 3.7543 3.7543 3.7543 4.6929 3.7543 3.7543 3.7543 3.7543 3.7543 3.7543 3.7543 3.7543 3.7543 3.7543 3.7543 3.7543 3.7543 3.7543 3.7543 3.7543 3.7543l3.7543 0.93858h3.7543 3.7543 4.6929 3.7543 3.7543l3.7543 0.93858h3.7543 3.7543l3.7543 0.93858h3.7543 3.7543l7.5087 1.8772h3.7543l11.263 2.8157 3.7543 1.8772 3.7543 0.93858 3.7543 1.8772 3.7543 0.93858 7.5087 3.7543 4.6929 1.8772 7.5087 3.7543 3.7543 2.8157 7.5087 3.7543 3.7543 2.8157 3.7543 1.8772 11.263 8.4472 3.7543 1.8772 22.526 16.894 3.7543 1.8772 2.8158 2.8157 7.5087 5.6315 3.7543 1.8772 2.8158 2.8157 3.7543 2.8157 4.6929 2.8157 3.7543 2.8157 2.8158 2.8158 3.7543 2.8158 3.7543 1.8772 2.8158 2.8158 18.772 14.079 3.7543 1.8772 2.8158 2.8158 18.772 14.079 4.6929 2.8158 2.8158 2.8158 33.789 25.342 3.7543 1.8772 2.8158 2.8157 2.8158 1.8772" fill="none" stroke="#148873" stroke-linecap="round" stroke-linejoin="round" stroke-width="1.8772px"/></svg>
